HIERARCHY
ROOT Hips
{
	OFFSET -3.958830 18.904000 13.208200
	CHANNELS 6 Xposition Yposition Zposition Zrotation Yrotation Xrotation 
	JOINT LHipJoint
	{
		OFFSET 0.000000 0.000000 0.000000
		CHANNELS 3 Zrotation Yrotation Xrotation
		JOINT LeftUpLeg
		{
			OFFSET 1.800000 -1.400000 0.085000
			CHANNELS 3 Zrotation Yrotation Xrotation
			JOINT LeftLeg
			{
				OFFSET 2.215000 -6.000000 0.000000
				CHANNELS 3 Zrotation Yrotation Xrotation
				JOINT LeftFoot
				{
					OFFSET 2.500000 -6.900000 0.000000
					CHANNELS 3 Zrotation Yrotation Xrotation
					JOINT LeftToeBase
					{
						OFFSET 0.200000 -0.500000 1.950000
						CHANNELS 3 Zrotation Yrotation Xrotation
						End Site
						{
							OFFSET 0.000000 0.000000 0.000000
						}
					}
				}
			}
		}
	}
	JOINT RHipJoint
	{
		OFFSET 0.000000 0.000000 0.000000
		CHANNELS 3 Zrotation Yrotation Xrotation
		JOINT RightUpLeg
		{
			OFFSET -1.800000 -1.400000 0.085000
			CHANNELS 3 Zrotation Yrotation Xrotation
			JOINT RightLeg
			{
				OFFSET -2.215000 -6.000000 0.000000
				CHANNELS 3 Zrotation Yrotation Xrotation
				JOINT RightFoot
				{
					OFFSET -2.500000 -6.900000 0.000000
					CHANNELS 3 Zrotation Yrotation Xrotation
					JOINT RightToeBase
					{
						OFFSET -0.200000 -0.500000 1.950000
						CHANNELS 3 Zrotation Yrotation Xrotation
						End Site
						{
							OFFSET 0.000000 0.000000 0.000000
						}
					}
				}
			}
		}
	}
	JOINT LowerBack
	{
		OFFSET 0.000000 0.000000 0.000000
		CHANNELS 3 Zrotation Yrotation Xrotation
		JOINT Spine
		{
			OFFSET -0.087000 1.940000 -0.288900
			CHANNELS 3 Zrotation Yrotation Xrotation
			JOINT Spine1
			{
				OFFSET 0.000000 1.950000 0.060000
				CHANNELS 3 Zrotation Yrotation Xrotation
				JOINT Neck
				{
					OFFSET 0.000000 0.000000 0.000000
					CHANNELS 3 Zrotation Yrotation Xrotation
					JOINT Neck1
					{
						OFFSET 0.000000 1.600000 0.340000
						CHANNELS 3 Zrotation Yrotation Xrotation
						JOINT Head
						{
							OFFSET 0.000000 1.667000 -0.240000
							CHANNELS 3 Zrotation Yrotation Xrotation
							End Site
							{
								OFFSET 0.000000 0.000000 0.000000
							}
						}
					}
				}
				JOINT LeftShoulder
				{
					OFFSET 0.000000 0.000000 0.000000
					CHANNELS 3 Zrotation Yrotation Xrotation
					JOINT LeftArm
					{
						OFFSET 2.700000 1.550000 -0.730000
						CHANNELS 3 Zrotation Yrotation Xrotation
						JOINT LeftForeArm
						{
							OFFSET 5.450000 0.000000 0.000000
							CHANNELS 3 Zrotation Yrotation Xrotation
							JOINT LeftHand
							{
								OFFSET 3.450000 0.000000 0.000000
								CHANNELS 3 Zrotation Yrotation Xrotation
								JOINT LeftHandIndex1
								{
									OFFSET 0.750000 0.000000 0.000000
									CHANNELS 3 Zrotation Yrotation Xrotation
									End Site
									{
										OFFSET 0.000000 0.000000 0.000000
									}
								}
							}
						}
					}
				}
				JOINT RightShoulder
				{
					OFFSET 0.000000 0.000000 0.000000
					CHANNELS 3 Zrotation Yrotation Xrotation
					JOINT RightArm
					{
						OFFSET -2.700000 1.550000 -0.730000
						CHANNELS 3 Zrotation Yrotation Xrotation
						JOINT RightForeArm
						{
							OFFSET -5.450000 0.000000 0.000000
							CHANNELS 3 Zrotation Yrotation Xrotation
							JOINT RightHand
							{
								OFFSET -3.450000 0.000000 0.000000
								CHANNELS 3 Zrotation Yrotation Xrotation
								JOINT RightHandIndex1
								{
									OFFSET -0.750000 0.000000 0.000000
									CHANNELS 3 Zrotation Yrotation Xrotation
									End Site
									{
										OFFSET 0.000000 0.000000 0.000000
									}
								}
							}
						}
					}
				}
			}
		}
	}
}
MOTION
Frames: 7
Frame Time: 0.016667
0.493700 17.330760 -2.956300 -3.616222 8.381642 3.893622 -15.279799 14.886284 3.585301 1.065294 -2.110486 -15.089967 -5.119832 4.881254 13.402727 0.276394 2.877980 3.423253 0.466550 0.339290 0.718770 17.809421 -10.241577 3.410772 3.836897 3.316904 -22.278669 2.180365 -3.393287 17.865037 -0.139216 -1.836945 3.453152 -0.111370 -0.389450 0.181850 -3.010564 -5.183998 -8.499236 14.293343 -10.348248 24.965745 -4.523382 -2.095037 -30.224729 4.259993 -3.895002 -15.827961 -16.313008 4.378172 55.909655 -1.840740 -1.412710 5.649010 7.094538 6.045480 2.917509 -24.121025 -3.787966 1.176441 129.258911 0.394348 10.823933 -3.270638 3.637146 0.340230 -0.351190 0.507630 -0.018670 -12.767629 0.479086 9.574573 33.337142 -15.641975 -8.705317 -120.940669 15.759441 -21.652633 3.097100 -2.443462 0.289880 -0.294620 -0.503650 0.084950 
0.497330 17.304750 -2.941190 -3.781866 7.376948 4.541247 -15.275839 14.874761 3.600674 1.316709 -2.027541 -14.935740 -5.510205 4.827350 12.339320 0.245459 2.878028 3.422664 0.486920 0.356100 0.728000 17.811510 -10.196060 3.449540 3.726729 3.337044 -21.526613 3.027053 -3.236911 15.310163 -0.137783 -1.727559 3.482515 -0.088340 -0.380250 0.213180 -2.984677 -5.218375 -8.555541 14.894052 -9.962138 23.795070 -5.323574 -1.656832 -30.922690 4.520855 -3.516917 -15.956176 -15.565131 4.914496 57.589160 -2.321710 -0.457080 6.412860 6.498570 5.157628 2.523460 -23.264085 -4.912728 1.229604 130.613226 2.706969 16.636781 -3.301921 3.705524 0.345900 -0.327570 0.513650 -0.009450 -12.583668 1.405306 9.933967 33.810860 -14.421917 -8.220672 -120.241969 14.716669 -19.568840 3.085759 -2.466296 0.288260 -0.304020 -0.501510 0.077860 
0.487730 17.272970 -2.936470 -3.466516 4.884640 5.195896 -15.244186 14.790209 3.646104 1.059420 -1.986795 -14.734557 -6.184361 4.825817 11.600648 0.299669 2.745682 3.430059 0.632230 0.557060 0.833030 17.826334 -10.269192 3.480972 3.217190 3.252451 -20.891044 3.563371 -2.998507 12.949928 -0.209075 -1.594146 3.520952 -0.009030 -0.491390 0.229890 -2.966599 -4.914739 -8.638222 14.057268 -8.769316 22.818600 -5.507242 -1.276701 -32.017789 4.537358 -2.967544 -16.245532 -14.492269 5.976109 62.681760 -2.277500 0.919150 4.733860 6.165122 4.740471 2.429432 -22.925547 -3.877191 0.735157 134.683401 3.556410 21.320396 -3.195170 3.840902 0.349480 -0.379740 0.623390 0.029480 -12.290772 1.961710 9.876516 34.076166 -10.873453 -6.961656 -116.495785 11.491504 -12.459502 3.171923 -2.480635 0.375080 -0.335890 -0.611640 0.087680 
0.493070 17.259350 -2.985030 -3.365773 3.671858 4.333347 -15.228402 14.743459 3.632831 1.062852 -2.011597 -14.251059 -6.474298 4.952427 12.225308 0.328150 2.774435 3.390004 0.693430 0.633990 0.900560 17.825481 -10.365142 3.463876 1.966536 2.837192 -19.328803 5.302426 -3.172216 10.868718 -0.284065 -1.662446 3.469952 0.016990 -0.574750 0.251350 -2.946277 -4.674851 -8.628191 12.876290 -8.275845 24.744189 -5.493641 -1.429545 -33.030198 4.614478 -1.787039 -16.229521 -11.819977 5.547693 65.935496 -2.618860 1.533900 3.113200 5.050153 4.274639 2.799988 -20.995940 -3.938602 1.508279 139.222328 1.088388 17.143016 -3.078591 3.888962 0.375110 -0.419990 0.696070 0.026950 -11.280499 1.470631 9.566128 33.014124 -9.756048 -6.088987 -111.690052 12.691517 -12.250626 3.190171 -2.412705 0.416300 -0.371700 -0.658920 0.075710 
0.495710 17.296710 -3.093660 -3.403488 2.245739 0.715916 -15.250723 14.783757 3.536839 1.628844 -1.716020 -11.718146 -6.641166 5.349364 13.422877 0.432014 3.006003 3.312259 0.690470 0.602540 0.943840 17.809113 -10.462540 3.349200 0.814266 1.999692 -16.108495 6.524817 -3.594196 10.201259 -0.372954 -1.883690 3.416198 -0.039120 -0.664180 0.231010 -2.852579 -4.611580 -8.478496 10.808853 -7.283795 32.418635 -4.705600 -1.058407 -33.672700 5.050106 -0.947882 -16.491058 -10.188932 4.439822 66.253880 -2.803570 1.197680 -0.116430 3.864253 4.678991 4.415036 -21.339649 -2.688195 3.734260 142.808220 -6.581501 -6.126025 -2.881313 3.710971 0.446320 -0.502500 0.750670 0.010590 -10.574557 0.546986 9.305724 30.905163 -11.618106 -6.293129 -108.495069 20.588345 -21.125591 3.133624 -2.221900 0.425890 -0.394900 -0.689440 0.046870 
0.511640 17.346770 -3.392200 -3.542081 0.890553 -12.862229 -15.324932 14.944366 3.275561 3.847938 -0.251396 -1.575380 -5.612500 6.590175 17.077295 0.826642 4.134926 3.020436 0.491600 0.334620 0.878500 17.813790 -10.531360 3.052914 -1.855612 -0.234855 -5.274569 7.495520 -5.118741 12.053182 -0.542949 -2.994856 3.085240 -0.251920 -0.686360 0.226360 -2.736613 -4.927382 -8.202125 6.610703 -6.455733 54.615477 -3.915266 -0.704012 -26.851255 5.923618 -0.143429 -15.696545 -7.304050 0.899805 55.581883 -6.824190 2.680580 -7.200900 1.708157 1.390003 5.661288 -20.182461 -2.018292 1.303941 144.617752 -10.379507 -30.974216 -2.872772 3.526196 0.439420 -0.544900 0.695290 -0.076700 -11.038346 2.868878 9.927699 35.344177 -13.980008 -12.857369 -105.775515 29.167893 -36.310434 3.128217 -2.027505 0.416250 -0.479780 -0.622600 0.027920 
0.525670 17.357340 -3.714390 -3.388993 -0.468901 -25.503903 -15.440474 15.015395 3.115391 5.205052 0.713451 6.448809 -3.559114 7.678431 22.347829 1.229101 5.396153 2.743034 0.283280 0.148660 0.658170 17.805806 -10.424616 2.765369 -4.243980 -1.182023 2.539344 7.671810 -6.858098 17.423454 -0.655432 -4.287824 2.732713 -0.365120 -0.508390 0.276920 -2.553455 -5.275281 -7.823227 3.997480 -4.524490 67.274650 -4.142733 -1.034419 -1.103999 5.957290 -1.060580 -14.064692 -4.917163 -2.976650 34.016721 -10.234220 4.313440 -16.403780 1.077377 -5.317335 6.861638 -17.925712 -0.081422 -7.592467 139.122345 -14.226760 -56.419537 -3.137542 3.450546 0.281180 -0.415890 0.535550 -0.068670 -12.686508 8.514211 9.709514 40.365967 -11.047839 -23.432438 -101.835941 32.608788 -48.145589 3.110632 -2.068031 0.394290 -0.514260 -0.523920 0.093510 
